<?xml version="1.0" standalone="no"?>
<svg xmlns="http://www.w3.org/2000/svg" xmlns:xlink="http://www.w3.org/1999/xlink" width="274pt" height="317pt" viewBox="0.00 0.00 274 317">
<g id="graph0" class="graph" transform="translate(1.6106110694028928,308.6345706323809) scale(1)" data-name="G">

<polygon fill="white" stroke="none" points="-4,4 -4,-313 270,-313 270,4 -4,4"/>
<g id="clust1" class="cluster" data-name="cluster_input">

<polygon fill="none" stroke="black" points="8,-35 8,-274 78,-274 78,-35 8,-35"/>
<text text-anchor="middle" x="43" y="-257.4" font-family="Times,serif" font-size="14.00">输入层</text>
</g>
<g id="clust2" class="cluster" data-name="cluster_hide">

<polygon fill="none" stroke="black" points="98,-8 98,-301 168,-301 168,-8 98,-8"/>
<text text-anchor="middle" x="133" y="-284.4" font-family="Times,serif" font-size="14.00">隐蔽层</text>
</g>
<g id="clust3" class="cluster" data-name="cluster_output">

<polygon fill="none" stroke="black" points="188,-62 188,-247 258,-247 258,-62 188,-62"/>
<text text-anchor="middle" x="223" y="-230.4" font-family="Times,serif" font-size="14.00">输出层</text>
</g>
<!-- node_x1 -->
<g id="node1" class="node" pointer-events="visible" data-name="node_x1">

<ellipse fill="none" stroke="blue" cx="43" cy="-223" rx="27" ry="18"/>
<text text-anchor="middle" x="43" y="-218.8" font-family="Times,serif" font-size="14.00">x1</text>
</g>
<!-- node_h1 -->
<g id="node5" class="node" pointer-events="visible" data-name="node_h1">

<ellipse fill="none" stroke="blue" cx="133" cy="-34" rx="27" ry="18"/>
<text text-anchor="middle" x="133" y="-29.8" font-family="Times,serif" font-size="14.00">h1</text>
</g>
<!-- node_x1&#45;&gt;node_h1 -->
<g id="edge1" class="edge" data-name="node_x1-&gt;node_h1">

<path fill="none" stroke="black" d="M63.72,-211.35C69.17,-207.18 74.53,-202.01 78,-196 108.32,-143.46 67.68,-113.54 98,-61 99.62,-58.18 101.67,-55.55 103.94,-53.12"/>
<polygon fill="black" stroke="black" points="106.04,-55.94 111.16,-46.66 101.37,-50.72 106.04,-55.94"/>
</g>
<!-- node_h2 -->
<g id="node6" class="node" pointer-events="visible" data-name="node_h2">

<ellipse fill="none" stroke="blue" cx="133" cy="-250" rx="27" ry="18"/>
<text text-anchor="middle" x="133" y="-245.8" font-family="Times,serif" font-size="14.00">h2</text>
</g>
<!-- node_x1&#45;&gt;node_h2 -->
<g id="edge2" class="edge" data-name="node_x1-&gt;node_h2">

<path fill="none" stroke="black" d="M68.05,-230.38C76.97,-233.12 87.29,-236.28 96.99,-239.26"/>
<polygon fill="black" stroke="black" points="95.95,-242.6 106.54,-242.19 98,-235.91 95.95,-242.6"/>
</g>
<!-- node_h3 -->
<g id="node7" class="node" pointer-events="visible" data-name="node_h3">

<ellipse fill="none" stroke="blue" cx="133" cy="-196" rx="27" ry="18"/>
<text text-anchor="middle" x="133" y="-191.8" font-family="Times,serif" font-size="14.00">h3</text>
</g>
<!-- node_x1&#45;&gt;node_h3 -->
<g id="edge3" class="edge" data-name="node_x1-&gt;node_h3">

<path fill="none" stroke="black" d="M68.05,-215.62C76.97,-212.88 87.29,-209.72 96.99,-206.74"/>
<polygon fill="black" stroke="black" points="98,-210.09 106.54,-203.81 95.95,-203.4 98,-210.09"/>
</g>
<!-- node_h4 -->
<g id="node8" class="node" pointer-events="visible" data-name="node_h4">

<ellipse fill="none" stroke="blue" cx="133" cy="-142" rx="27" ry="18"/>
<text text-anchor="middle" x="133" y="-137.8" font-family="Times,serif" font-size="14.00">h4</text>
</g>
<!-- node_x1&#45;&gt;node_h4 -->
<g id="edge4" class="edge" data-name="node_x1-&gt;node_h4">

<path fill="none" stroke="black" d="M62.05,-210.09C67.43,-205.87 73.18,-200.99 78,-196 88.38,-185.26 87.62,-179.74 98,-169 100.26,-166.66 102.72,-164.35 105.26,-162.11"/>
<polygon fill="black" stroke="black" points="107.32,-164.95 112.79,-155.87 102.85,-159.56 107.32,-164.95"/>
</g>
<!-- node_h5 -->
<g id="node9" class="node" pointer-events="visible" data-name="node_h5">

<ellipse fill="none" stroke="blue" cx="133" cy="-88" rx="27" ry="18"/>
<text text-anchor="middle" x="133" y="-83.8" font-family="Times,serif" font-size="14.00">h5</text>
</g>
<!-- node_x1&#45;&gt;node_h5 -->
<g id="edge5" class="edge" data-name="node_x1-&gt;node_h5">

<path fill="none" stroke="black" d="M63.72,-210.87C69.04,-206.74 74.33,-201.71 78,-196 98.04,-164.8 77.96,-146.2 98,-115 99.72,-112.32 101.79,-109.8 104.06,-107.44"/>
<polygon fill="black" stroke="black" points="106,-110.4 111.15,-101.14 101.35,-105.17 106,-110.4"/>
</g>
<!-- node_x2 -->
<g id="node2" class="node" pointer-events="visible" data-name="node_x2">

<ellipse fill="none" stroke="blue" cx="43" cy="-169" rx="27" ry="18"/>
<text text-anchor="middle" x="43" y="-164.8" font-family="Times,serif" font-size="14.00">x2</text>
</g>
<!-- node_x2&#45;&gt;node_h1 -->
<g id="edge6" class="edge" data-name="node_x2-&gt;node_h1">

<path fill="none" stroke="black" d="M63.72,-156.87C69.04,-152.74 74.33,-147.71 78,-142 98.04,-110.8 77.96,-92.2 98,-61 99.72,-58.32 101.79,-55.8 104.06,-53.44"/>
<polygon fill="black" stroke="black" points="106,-56.4 111.15,-47.14 101.35,-51.17 106,-56.4"/>
</g>
<!-- node_x2&#45;&gt;node_h2 -->
<g id="edge7" class="edge" data-name="node_x2-&gt;node_h2">

<path fill="none" stroke="black" d="M62.05,-181.91C67.43,-186.13 73.18,-191.01 78,-196 88.38,-206.74 87.62,-212.26 98,-223 100.26,-225.34 102.72,-227.65 105.26,-229.89"/>
<polygon fill="black" stroke="black" points="102.85,-232.44 112.79,-236.13 107.32,-227.05 102.85,-232.44"/>
</g>
<!-- node_x2&#45;&gt;node_h3 -->
<g id="edge8" class="edge" data-name="node_x2-&gt;node_h3">

<path fill="none" stroke="black" d="M68.05,-176.38C76.97,-179.12 87.29,-182.28 96.99,-185.26"/>
<polygon fill="black" stroke="black" points="95.95,-188.6 106.54,-188.19 98,-181.91 95.95,-188.6"/>
</g>
<!-- node_x2&#45;&gt;node_h4 -->
<g id="edge9" class="edge" data-name="node_x2-&gt;node_h4">

<path fill="none" stroke="black" d="M68.05,-161.62C76.97,-158.88 87.29,-155.72 96.99,-152.74"/>
<polygon fill="black" stroke="black" points="98,-156.09 106.54,-149.81 95.95,-149.4 98,-156.09"/>
</g>
<!-- node_x2&#45;&gt;node_h5 -->
<g id="edge10" class="edge" data-name="node_x2-&gt;node_h5">

<path fill="none" stroke="black" d="M62.05,-156.09C67.43,-151.87 73.18,-146.99 78,-142 88.38,-131.26 87.62,-125.74 98,-115 100.26,-112.66 102.72,-110.35 105.26,-108.11"/>
<polygon fill="black" stroke="black" points="107.32,-110.95 112.79,-101.87 102.85,-105.56 107.32,-110.95"/>
</g>
<!-- node_x3 -->
<g id="node3" class="node" pointer-events="visible" data-name="node_x3">

<ellipse fill="none" stroke="blue" cx="43" cy="-115" rx="27" ry="18"/>
<text text-anchor="middle" x="43" y="-110.8" font-family="Times,serif" font-size="14.00">x3</text>
</g>
<!-- node_x3&#45;&gt;node_h1 -->
<g id="edge11" class="edge" data-name="node_x3-&gt;node_h1">

<path fill="none" stroke="black" d="M62.05,-102.09C67.43,-97.87 73.18,-92.99 78,-88 88.38,-77.26 87.62,-71.74 98,-61 100.26,-58.66 102.72,-56.35 105.26,-54.11"/>
<polygon fill="black" stroke="black" points="107.32,-56.95 112.79,-47.87 102.85,-51.56 107.32,-56.95"/>
</g>
<!-- node_x3&#45;&gt;node_h2 -->
<g id="edge12" class="edge" data-name="node_x3-&gt;node_h2">

<path fill="none" stroke="black" d="M63.72,-127.13C69.04,-131.26 74.33,-136.29 78,-142 98.04,-173.2 77.96,-191.8 98,-223 99.72,-225.68 101.79,-228.2 104.06,-230.56"/>
<polygon fill="black" stroke="black" points="101.35,-232.83 111.15,-236.86 106,-227.6 101.35,-232.83"/>
</g>
<!-- node_x3&#45;&gt;node_h3 -->
<g id="edge13" class="edge" data-name="node_x3-&gt;node_h3">

<path fill="none" stroke="black" d="M62.05,-127.91C67.43,-132.13 73.18,-137.01 78,-142 88.38,-152.74 87.62,-158.26 98,-169 100.26,-171.34 102.72,-173.65 105.26,-175.89"/>
<polygon fill="black" stroke="black" points="102.85,-178.44 112.79,-182.13 107.32,-173.05 102.85,-178.44"/>
</g>
<!-- node_x3&#45;&gt;node_h4 -->
<g id="edge14" class="edge" data-name="node_x3-&gt;node_h4">

<path fill="none" stroke="black" d="M68.05,-122.38C76.97,-125.12 87.29,-128.28 96.99,-131.26"/>
<polygon fill="black" stroke="black" points="95.95,-134.6 106.54,-134.19 98,-127.91 95.95,-134.6"/>
</g>
<!-- node_x3&#45;&gt;node_h5 -->
<g id="edge15" class="edge" data-name="node_x3-&gt;node_h5">

<path fill="none" stroke="black" d="M68.05,-107.62C76.97,-104.88 87.29,-101.72 96.99,-98.74"/>
<polygon fill="black" stroke="black" points="98,-102.09 106.54,-95.81 95.95,-95.4 98,-102.09"/>
</g>
<!-- node_o1 -->
<g id="node10" class="node" pointer-events="visible" data-name="node_o1">

<ellipse fill="none" stroke="blue" cx="223" cy="-88" rx="27" ry="18"/>
<text text-anchor="middle" x="223" y="-83.8" font-family="Times,serif" font-size="14.00">o1</text>
</g><g id="node4" class="node" pointer-events="visible" data-name="node_x4" data-comment="node_o1">

<ellipse fill="none" stroke="blue" cx="43" cy="-61" rx="27" ry="18"/>
<text text-anchor="middle" x="43" y="-56.8" font-family="Times,serif" font-size="14.00">x4</text>
</g>
<!-- node_h1&#45;&gt;node_o1 -->
<g id="edge21" class="edge" data-name="node_h1-&gt;node_o1">

<path fill="none" stroke="black" d="M153.53,-45.98C165.15,-53.12 180.11,-62.3 193.08,-70.25"/>
<polygon fill="black" stroke="black" points="190.88,-73.01 201.23,-75.26 194.54,-67.04 190.88,-73.01"/>
</g>
<!-- node_o2 -->
<g id="node11" class="node" pointer-events="visible" data-name="node_o2">

<ellipse fill="none" stroke="blue" cx="223" cy="-196" rx="27" ry="18"/>
<text text-anchor="middle" x="223" y="-191.8" font-family="Times,serif" font-size="14.00">o2</text>
</g>
<!-- node_h1&#45;&gt;node_o2 -->
<g id="edge22" class="edge" data-name="node_h1-&gt;node_o2">

<path fill="none" stroke="black" d="M153.58,-45.73C159.03,-49.9 164.43,-55.06 168,-61 193.16,-102.84 162.84,-127.16 188,-169 189.68,-171.79 191.75,-174.4 194.04,-176.82"/>
<polygon fill="black" stroke="black" points="191.49,-179.23 201.29,-183.27 196.14,-174 191.49,-179.23"/>
</g>
<!-- node_o3 -->
<g id="node12" class="node" pointer-events="visible" data-name="node_o3">

<ellipse fill="none" stroke="blue" cx="223" cy="-142" rx="27" ry="18"/>
<text text-anchor="middle" x="223" y="-137.8" font-family="Times,serif" font-size="14.00">o3</text>
</g><g id="edge18" class="edge" data-name="node_x4-&gt;node_h3" data-comment="node_o3">

<path fill="none" stroke="black" d="M63.72,-73.13C69.04,-77.26 74.33,-82.29 78,-88 98.04,-119.2 77.96,-137.8 98,-169 99.72,-171.68 101.79,-174.2 104.06,-176.56"/>
<polygon fill="black" stroke="black" points="101.35,-178.83 111.15,-182.86 106,-173.6 101.35,-178.83"/>
</g><g id="edge19" class="edge" data-name="node_x4-&gt;node_h4" data-comment="node_o3">

<path fill="none" stroke="black" d="M62.05,-73.91C67.43,-78.13 73.18,-83.01 78,-88 88.38,-98.74 87.62,-104.26 98,-115 100.26,-117.34 102.72,-119.65 105.26,-121.89"/>
<polygon fill="black" stroke="black" points="102.85,-124.44 112.79,-128.13 107.32,-119.05 102.85,-124.44"/>
</g>
<!-- node_h1&#45;&gt;node_o3 -->
<g id="edge23" class="edge" data-name="node_h1-&gt;node_o3">

<path fill="none" stroke="black" d="M153.33,-46.41C158.63,-50.54 164.02,-55.51 168,-61 183.02,-81.72 172.98,-94.28 188,-115 189.87,-117.57 192.04,-120.03 194.37,-122.35"/>
<polygon fill="black" stroke="black" points="191.7,-124.66 201.53,-128.6 196.3,-119.39 191.7,-124.66"/>
</g><g id="edge16" class="edge" data-name="node_x4-&gt;node_h1" data-comment="node_h1-&gt;node_o3">

<path fill="none" stroke="black" d="M68.05,-53.62C76.97,-50.88 87.29,-47.72 96.99,-44.74"/>
<polygon fill="black" stroke="black" points="98,-48.09 106.54,-41.81 95.95,-41.4 98,-48.09"/>
</g><g id="edge17" class="edge" data-name="node_x4-&gt;node_h2" data-comment="node_h1-&gt;node_o3">

<path fill="none" stroke="black" d="M63.72,-72.65C69.17,-76.82 74.53,-81.99 78,-88 108.32,-140.54 67.68,-170.46 98,-223 99.62,-225.82 101.67,-228.45 103.94,-230.88"/>
<polygon fill="black" stroke="black" points="101.37,-233.28 111.16,-237.34 106.04,-228.06 101.37,-233.28"/>
</g><g id="edge20" class="edge" data-name="node_x4-&gt;node_h5" data-comment="node_h1-&gt;node_o3">

<path fill="none" stroke="black" d="M68.05,-68.38C76.97,-71.12 87.29,-74.28 96.99,-77.26"/>
<polygon fill="black" stroke="black" points="95.95,-80.6 106.54,-80.19 98,-73.91 95.95,-80.6"/>
</g>
<!-- node_h2&#45;&gt;node_o1 -->
<g id="edge24" class="edge" data-name="node_h2-&gt;node_o1">

<path fill="none" stroke="black" d="M153.58,-238.27C159.03,-234.1 164.43,-228.94 168,-223 193.16,-181.16 162.84,-156.84 188,-115 189.68,-112.21 191.75,-109.6 194.04,-107.18"/>
<polygon fill="black" stroke="black" points="196.14,-110 201.29,-100.73 191.49,-104.77 196.14,-110"/>
</g>
<!-- node_h2&#45;&gt;node_o2 -->
<g id="edge25" class="edge" data-name="node_h2-&gt;node_o2">

<path fill="none" stroke="black" d="M153.53,-238.02C165.15,-230.88 180.11,-221.7 193.08,-213.75"/>
<polygon fill="black" stroke="black" points="194.54,-216.96 201.23,-208.74 190.88,-210.99 194.54,-216.96"/>
</g>
<!-- node_h2&#45;&gt;node_o3 -->
<g id="edge26" class="edge" data-name="node_h2-&gt;node_o3">

<path fill="none" stroke="black" d="M153.33,-237.59C158.63,-233.46 164.02,-228.49 168,-223 183.02,-202.28 172.98,-189.72 188,-169 189.87,-166.43 192.04,-163.97 194.37,-161.65"/>
<polygon fill="black" stroke="black" points="196.3,-164.61 201.53,-155.4 191.7,-159.34 196.3,-164.61"/>
</g>
<!-- node_h3&#45;&gt;node_o1 -->
<g id="edge27" class="edge" data-name="node_h3-&gt;node_o1">

<path fill="none" stroke="black" d="M153.33,-183.59C158.63,-179.46 164.02,-174.49 168,-169 183.02,-148.28 172.98,-135.72 188,-115 189.87,-112.43 192.04,-109.97 194.37,-107.65"/>
<polygon fill="black" stroke="black" points="196.3,-110.61 201.53,-101.4 191.7,-105.34 196.3,-110.61"/>
</g>
<!-- node_h3&#45;&gt;node_o2 -->
<g id="edge28" class="edge" data-name="node_h3-&gt;node_o2">

<path fill="none" stroke="black" d="M160.4,-196C167.89,-196 176.18,-196 184.2,-196"/>
<polygon fill="black" stroke="black" points="184.1,-199.5 194.1,-196 184.1,-192.5 184.1,-199.5"/>
</g>
<!-- node_h3&#45;&gt;node_o3 -->
<g id="edge29" class="edge" data-name="node_h3-&gt;node_o3">

<path fill="none" stroke="black" d="M153.53,-184.02C165.15,-176.88 180.11,-167.7 193.08,-159.75"/>
<polygon fill="black" stroke="black" points="194.54,-162.96 201.23,-154.74 190.88,-156.99 194.54,-162.96"/>
</g>
<!-- node_h4&#45;&gt;node_o1 -->
<g id="edge30" class="edge" data-name="node_h4-&gt;node_o1">

<path fill="none" stroke="black" d="M153.53,-130.02C165.15,-122.88 180.11,-113.7 193.08,-105.75"/>
<polygon fill="black" stroke="black" points="194.54,-108.96 201.23,-100.74 190.88,-102.99 194.54,-108.96"/>
</g>
<!-- node_h4&#45;&gt;node_o2 -->
<!-- node_h4&#45;&gt;node_o2 -->
<g id="edge31" class="edge" data-name="node_h4-&gt;node_o2">

<path fill="none" stroke="black" d="M153.53,-153.98C165.15,-161.12 180.11,-170.3 193.08,-178.25"/>
<polygon fill="black" stroke="black" points="190.88,-181.01 201.23,-183.26 194.54,-175.04 190.88,-181.01"/>
</g>
<!-- node_h4&#45;&gt;node_o3 -->

<!-- node_h4&#45;&gt;node_o3 -->
<g id="edge32" class="edge" data-name="node_h4-&gt;node_o3">

<path fill="none" stroke="black" d="M160.4,-142C167.89,-142 176.18,-142 184.2,-142"/>
<polygon fill="black" stroke="black" points="184.1,-145.5 194.1,-142 184.1,-138.5 184.1,-145.5"/>
</g>
<!-- node_h5&#45;&gt;node_o1 -->

<!-- node_h5&#45;&gt;node_o1 -->
<g id="edge33" class="edge" data-name="node_h5-&gt;node_o1">

<path fill="none" stroke="black" d="M160.4,-88C167.89,-88 176.18,-88 184.2,-88"/>
<polygon fill="black" stroke="black" points="184.1,-91.5 194.1,-88 184.1,-84.5 184.1,-91.5"/>
</g>
<!-- node_h5&#45;&gt;node_o2 -->

<!-- node_h5&#45;&gt;node_o2 -->
<g id="edge34" class="edge" data-name="node_h5-&gt;node_o2">

<path fill="none" stroke="black" d="M153.33,-100.41C158.63,-104.54 164.02,-109.51 168,-115 183.02,-135.72 172.98,-148.28 188,-169 189.87,-171.57 192.04,-174.03 194.37,-176.35"/>
<polygon fill="black" stroke="black" points="191.7,-178.66 201.53,-182.6 196.3,-173.39 191.7,-178.66"/>
</g>
<!-- node_h5&#45;&gt;node_o3 -->
<!-- node_h5&#45;&gt;node_o3 -->

<!-- node_h5&#45;&gt;node_o3 -->
<g id="edge35" class="edge" data-name="node_h5-&gt;node_o3">

<path fill="none" stroke="black" d="M153.53,-99.98C165.15,-107.12 180.11,-116.3 193.08,-124.25"/>
<polygon fill="black" stroke="black" points="190.88,-127.01 201.23,-129.26 194.54,-121.04 190.88,-127.01"/>
</g>


</g>
</svg>